<svg width="128" height="128" viewBox="0 0 24 25" fill="none" xmlns="http://www.w3.org/2000/svg">
<g clip-path="url(#clip0_7_10733)">
<path d="M13.5 10.9875H22.5C23.3297 10.9875 24 11.6579 24 12.4875C24 13.3172 23.3297 13.9875 22.5 13.9875H13.5V22.9875C13.5 23.8172 12.8297 24.4875 11.9578 24.4875C11.1703 24.4875 10.4578 23.8172 10.4578 22.9875V13.9875H1.5C0.671719 13.9875 0 13.3172 0 12.4875C0 11.6579 0.671719 10.9875 1.5 10.9875H10.4578V1.98755C10.4578 1.15927 11.1703 0.487549 11.9578 0.487549C12.8297 0.487549 13.5 1.15927 13.5 1.98755V10.9875Z" fill="black"/>
</g>
<defs>
<clipPath id="clip0_7_10733">
<rect width="24" height="24" fill="white" transform="translate(0 0.487549)"/>
</clipPath>
</defs>
</svg>
