<svg width="128" height="128" viewBox="0 0 30 25" fill="none" xmlns="http://www.w3.org/2000/svg">
<g clip-path="url(#clip0_7_8623)">
<path d="M25.5 0.487549C26.1234 0.487549 26.625 0.991455 26.625 1.61255V3.86255H28.875C29.4984 3.86255 30 4.36646 30 4.98755C30 5.61099 29.4984 6.11255 28.875 6.11255H26.625V8.36255C26.625 8.98599 26.1234 9.48755 25.5 9.48755C24.8766 9.48755 24.375 8.98599 24.375 8.36255V6.11255H22.125C21.5016 6.11255 21 5.61099 21 4.98755C21 4.36646 21.5016 3.86255 22.125 3.86255H24.375V1.61255C24.375 0.991455 24.8766 0.487549 25.5 0.487549ZM0 13.9875C0 8.18911 4.70156 3.48755 10.5 3.48755C16.2984 3.48755 21 8.18911 21 13.9875C21 19.786 16.2984 24.4875 10.5 24.4875C4.70156 24.4875 0 19.786 0 13.9875ZM6.76875 13.2375C7.59375 13.2375 8.26875 12.5672 8.26875 11.7375C8.26875 10.9079 7.59375 10.2375 6.76875 10.2375C5.93906 10.2375 5.26875 10.9079 5.26875 11.7375C5.26875 12.5672 5.93906 13.2375 6.76875 13.2375ZM14.2687 10.2375C13.4391 10.2375 12.7687 10.9079 12.7687 11.7375C12.7687 12.5672 13.4391 13.2375 14.2687 13.2375C15.0938 13.2375 15.7687 12.5672 15.7687 11.7375C15.7687 10.9079 15.0938 10.2375 14.2687 10.2375ZM6.52031 16.711C6.28594 16.4016 5.8125 16.3688 5.50313 16.6454C5.19375 16.9172 5.16563 17.3907 5.4375 17.7047C6.675 19.1016 8.44219 19.9875 10.5 19.9875C12.5156 19.9875 14.325 19.1016 15.5203 17.7047C15.8344 17.3907 15.8063 16.9172 15.4969 16.6454C15.1453 16.3688 14.7141 16.4016 14.4375 16.711C13.4766 17.8032 12.0656 18.4875 10.5 18.4875C8.93437 18.4875 7.52344 17.8032 6.52031 16.711Z" fill="black"/>
</g>
<defs>
<clipPath id="clip0_7_8623">
<rect width="30" height="24" fill="white" transform="translate(0 0.487549)"/>
</clipPath>
</defs>
</svg>
