<svg width="128" height="128" viewBox="0 0 21 25" fill="none" xmlns="http://www.w3.org/2000/svg">
<path d="M20.9578 12.4875C20.9578 13.3172 20.3297 13.9875 19.5 13.9875H5.12345L10.0641 18.9282C10.65 19.5141 10.65 20.4633 10.0641 21.0493C9.76876 21.3422 9.38438 21.4875 9.00001 21.4875C8.61563 21.4875 8.2322 21.3411 7.9397 21.0481L0.439697 13.5481C-0.14624 12.9622 -0.14624 12.0129 0.439697 11.427L7.9397 3.927C8.52563 3.34106 9.47485 3.34106 10.0608 3.927C10.6467 4.51294 10.6467 5.46216 10.0608 6.0481L5.12345 10.9875H19.5C20.3297 10.9875 20.9578 11.6579 20.9578 12.4875Z" fill="black"/>
</svg>
