<svg width="128" height="128" viewBox="0 0 25 25" fill="none" xmlns="http://www.w3.org/2000/svg">
<path d="M21.5 22.5H3.5C3.09 22.5 2.75 22.16 2.75 21.75C2.75 21.34 3.09 21 3.5 21H21.5C21.91 21 22.25 21.34 22.25 21.75C22.25 22.16 21.91 22.5 21.5 22.5Z" fill="#292D32"/>
<path d="M19.5201 3.97967C17.5801 2.03967 15.6801 1.98967 13.6901 3.97967L12.4801 5.18967C12.3801 5.28967 12.3401 5.44967 12.3801 5.58967C13.1401 8.23967 15.2601 10.3597 17.9101 11.1197C17.9501 11.1297 17.9901 11.1397 18.0301 11.1397C18.1401 11.1397 18.2401 11.0997 18.3201 11.0197L19.5201 9.80967C20.5101 8.82967 20.9901 7.87967 20.9901 6.91967C21.0001 5.92967 20.5201 4.96967 19.5201 3.97967Z" fill="#292D32"/>
<path d="M16.1101 12.0298C15.8201 11.8898 15.5401 11.7498 15.2701 11.5898C15.0501 11.4598 14.8401 11.3198 14.6301 11.1698C14.4601 11.0598 14.2601 10.8998 14.0701 10.7398C14.0501 10.7298 13.9801 10.6698 13.9001 10.5898C13.5701 10.3098 13.2001 9.9498 12.8701 9.5498C12.8401 9.5298 12.7901 9.4598 12.7201 9.3698C12.6201 9.2498 12.4501 9.0498 12.3001 8.8198C12.1801 8.6698 12.0401 8.4498 11.9101 8.2298C11.7501 7.9598 11.6101 7.6898 11.4701 7.4098C11.4489 7.36441 11.4284 7.31924 11.4085 7.27434C11.2609 6.94102 10.8263 6.84358 10.5685 7.10133L4.84007 12.8298C4.71007 12.9598 4.59007 13.2098 4.56007 13.3798L4.02007 17.2098C3.92007 17.8898 4.11007 18.5298 4.53007 18.9598C4.89007 19.3098 5.39007 19.4998 5.93007 19.4998C6.05007 19.4998 6.17007 19.4898 6.29007 19.4698L10.1301 18.9298C10.3101 18.8998 10.5601 18.7798 10.6801 18.6498L16.4014 12.9285C16.6609 12.6689 16.563 12.2235 16.2254 12.0794C16.1874 12.0632 16.149 12.0467 16.1101 12.0298Z" fill="#292D32"/>
</svg>
