<svg width="128" height="128" viewBox="0 0 30 24" fill="none" xmlns="http://www.w3.org/2000/svg">
<path d="M28.4578 4.5H26.9578C24.022 4.5 21.1594 5.36719 18.7125 6.99609L17.9578 7.5H2.25C1.00781 7.5 0 8.50781 0 9.75V14.25C0 15.4922 1.00781 16.5 2.25 16.5H17.9578L18.7134 17.0039C21.1969 18.6328 24.0656 19.5 26.9578 19.5H28.4578C29.2837 19.5 29.9578 18.8259 29.9578 18V6C29.9578 5.175 29.325 4.5 28.4578 4.5ZM25.5 17.1375C23.5369 16.9148 21.6502 16.2234 20.0062 15.128L18.6797 14.25H2.25V9.75H18.6797L20.0039 8.87109C21.6516 7.77656 23.5359 7.0875 25.5 6.8625V17.1375ZM13.3125 10.875H12.1875C11.5664 10.875 11.0625 11.3789 11.0625 12C11.0625 12.6211 11.5664 13.125 12.1875 13.125H13.3125C13.9336 13.125 14.4375 12.6211 14.4375 12C14.4375 11.3812 13.9312 10.875 13.3125 10.875Z" fill="#2B2829"/>
</svg>
