<svg width="128" height="128" viewBox="0 0 30 24" fill="none" xmlns="http://www.w3.org/2000/svg">
<g clip-path="url(#clip0_4255_19)">
<path d="M17.9578 7.5H1.45776C0.631826 7.5 -0.0422363 8.17406 -0.0422363 9V15C-0.0422363 15.8259 0.631826 16.5 1.45776 16.5H17.9578L18.7134 17.0039C20.775 18.3516 23.1 19.1438 25.5 19.3875V4.61156C23.0976 4.85766 20.775 5.64844 18.7546 6.99609L17.9578 7.5ZM13.4578 13.5H11.9578C11.1318 13.5 10.4578 12.8259 10.4578 12C10.4578 11.1741 11.1318 10.5 11.9578 10.5H13.4578C14.2837 10.5 14.9578 11.1741 14.9578 12C14.9578 12.8259 14.325 13.5 13.4578 13.5ZM28.4578 4.5H26.9578V19.5H28.4578C29.2837 19.5 29.9578 18.8259 29.9578 18V6C29.9578 5.175 29.325 4.5 28.4578 4.5Z" fill="black"/>
</g>
<defs>
<clipPath id="clip0_4255_19">
<rect width="30" height="24" fill="white"/>
</clipPath>
</defs>
</svg>
