<svg width="128" height="128" viewBox="0 0 24 25" fill="none" xmlns="http://www.w3.org/2000/svg">
<g clip-path="url(#clip0_7_8067)">
<path d="M18 4.98755V0.487549H12.75C11.5073 0.487549 10.5 1.49489 10.5 2.73755V16.2375C10.5 17.4802 11.5073 18.4875 12.75 18.4875H21.75C22.9927 18.4875 24 17.4802 24 16.2375V6.48755H19.5422C18.675 6.48755 18 5.81255 18 4.98755ZM19.5 0.487549V4.98755H24L19.5 0.487549ZM9 16.9875V6.48755H2.25C1.00734 6.48755 0 7.49489 0 8.73755V22.2375C0 23.4802 1.00734 24.4875 2.25 24.4875H11.25C12.4927 24.4875 13.5 23.4802 13.5 22.2375V19.9875H12C10.3453 19.9875 9 18.6422 9 16.9875Z" fill="black"/>
</g>
<defs>
<clipPath id="clip0_7_8067">
<rect width="24" height="24" fill="white" transform="translate(0 0.487549)"/>
</clipPath>
</defs>
</svg>
