<svg width="128" height="128" viewBox="0 0 27 25" fill="none" xmlns="http://www.w3.org/2000/svg">
<path d="M24.6375 8.25942L19.5 11.7985V19.1813L24.6375 22.7194C25.6312 23.3954 27 22.7016 27 21.5063V9.46411C27 8.27349 25.6359 7.57505 24.6375 8.25942ZM15 7.94536H4.5V6.48755C4.5 5.66255 5.175 4.98755 6 4.98755H13.5C14.3297 4.98755 15 4.31583 15 3.48755C15 2.65927 14.3297 1.98755 13.5 1.98755H6C3.51469 1.98755 1.5 4.00224 1.5 6.48755V8.12255C0.60375 8.43286 0 9.27661 0 10.2282L4.6875e-06 19.9875C4.6875e-06 21.6446 1.34297 22.9454 3 22.9454L15 22.9453C16.657 22.9453 18 21.6023 18 19.9875V10.9454C18 9.33286 16.6547 7.94536 15 7.94536ZM14.25 12.4454H3.75C3.33581 12.4454 3 12.1095 3 11.7375C3 11.3233 3.33581 10.9875 3.75 10.9875H14.25C14.6643 10.9875 15 11.3233 15 11.7375C15 12.15 14.6625 12.4454 14.25 12.4454Z" fill="black"/>
</svg>
