<svg width="128" height="128" viewBox="0 0 25 24" fill="none" xmlns="http://www.w3.org/2000/svg">
<path d="M17.54 10.6396L10.19 3.28965L9.31998 2.41965C9.02998 2.12965 8.54998 2.12965 8.25998 2.41965C7.96998 2.70965 7.96998 3.18965 8.25998 3.47965L9.12998 4.34965L3.49998 9.97965C2.85998 10.6196 2.51998 11.2696 2.49998 11.9196C2.47998 12.6096 2.81998 13.2996 3.49998 13.9896L7.50998 17.9996C8.84998 19.3296 10.19 19.3296 11.52 17.9996L17.54 11.9796C17.74 11.7796 17.83 11.5096 17.81 11.2496C17.8 11.0296 17.7 10.7996 17.54 10.6396Z" fill="#292D32"/>
<path d="M16.5 22.75H3.5C3.09 22.75 2.75 22.41 2.75 22C2.75 21.59 3.09 21.25 3.5 21.25H16.5C16.91 21.25 17.25 21.59 17.25 22C17.25 22.41 16.91 22.75 16.5 22.75Z" fill="#292D32"/>
<path d="M19.85 14.7803C19.59 14.5003 19.11 14.5003 18.85 14.7803C18.54 15.1203 17 16.8503 17 18.1703C17 19.4703 18.05 20.5203 19.35 20.5203C20.65 20.5203 21.7 19.4703 21.7 18.1703C21.7 16.8603 20.16 15.1203 19.85 14.7803Z" fill="#292D32"/>
</svg>
