<svg width="128" height="128" viewBox="0 0 25 25" fill="none" xmlns="http://www.w3.org/2000/svg">
<path d="M22.5 16.69C22.5 20.33 20.33 22.5 16.69 22.5H15.5C14.95 22.5 14.5 22.05 14.5 21.5V15.73C14.5 15.46 14.72 15.23 14.99 15.23L16.75 15.2C16.89 15.19 17.01 15.09 17.04 14.95L17.39 13.04C17.42 12.86 17.28 12.69 17.09 12.69L14.96 12.72C14.68 12.72 14.46 12.5 14.45 12.23L14.41 9.78C14.41 9.62 14.54 9.48001 14.71 9.48001L17.11 9.44C17.28 9.44 17.41 9.31001 17.41 9.14001L17.37 6.73999C17.37 6.56999 17.24 6.44 17.07 6.44L14.37 6.48001C12.71 6.51001 11.39 7.87 11.42 9.53L11.47 12.28C11.48 12.56 11.26 12.78 10.98 12.79L9.78 12.81C9.61 12.81 9.48001 12.94 9.48001 13.11L9.51001 15.01C9.51001 15.18 9.64 15.31 9.81 15.31L11.01 15.29C11.29 15.29 11.51 15.51 11.52 15.78L11.61 21.48C11.62 22.04 11.17 22.5 10.61 22.5H8.31C4.67 22.5 2.5 20.33 2.5 16.68V8.31C2.5 4.67 4.67 2.5 8.31 2.5H16.69C20.33 2.5 22.5 4.67 22.5 8.31V16.69Z" fill="black"/>
</svg>
