<svg width="128" height="128" viewBox="0 0 25 25" fill="none" xmlns="http://www.w3.org/2000/svg">
<path d="M12.5 2.5C6.98 2.5 2.5 6.65001 2.5 11.76C2.5 14.66 3.93999 17.24 6.17999 18.94V20.79C6.17999 21.56 6.99998 22.04 7.66998 21.66L9.53003 20.61C10.47 20.88 11.46 21.02 12.49 21.02C18.01 21.02 22.49 16.87 22.49 11.76C22.5 6.65001 18.02 2.5 12.5 2.5ZM16.01 10.94L13.51 13.93C13.35 14.12 13.09 14.16 12.88 14.04L11.87 13.45C11.76 13.39 11.63 13.37 11.5 13.4L9.48999 13.89C9.01999 14 8.67999 13.45 8.98999 13.08L11.53 10.06C11.68 9.88 11.94 9.83 12.15 9.94L13.33 10.56C13.44 10.62 13.57 10.63 13.69 10.6L15.51 10.13C15.97 10.01 16.32 10.57 16.01 10.94Z" fill="black"/>
</svg>
