<svg width="128" height="128" viewBox="0 0 24 25" fill="none" xmlns="http://www.w3.org/2000/svg">
<path d="M18.07 9.00965L9.51 4.72965C3.76 1.84965 1.4 4.20965 4.28 9.95965L5.15 11.6996C5.4 12.2096 5.4 12.7996 5.15 13.3096L4.28 15.0396C1.4 20.7896 3.75 23.1496 9.51 20.2696L18.07 15.9896C21.91 14.0696 21.91 10.9296 18.07 9.00965ZM14.84 13.2496H9.44C9.03 13.2496 8.69 12.9096 8.69 12.4996C8.69 12.0896 9.03 11.7496 9.44 11.7496H14.84C15.25 11.7496 15.59 12.0896 15.59 12.4996C15.59 12.9096 15.25 13.2496 14.84 13.2496Z" fill="#292D32"/>
</svg>
